<?xml version="1.0" encoding="UTF-8" standalone="no"?>
<svg
   width="48"
   height="48"
   viewBox="0 0 48 48"
   fill="none"
   version="1.1"
   id="svg5"
   sodipodi:docname="PBESorcerer_white_1752196438-Sorcerer.svg"
   inkscape:version="1.4 (86a8ad7, 2024-10-11)"
   xmlns:inkscape="http://www.inkscape.org/namespaces/inkscape"
   xmlns:sodipodi="http://sodipodi.sourceforge.net/DTD/sodipodi-0.dtd"
   xmlns="http://www.w3.org/2000/svg"
   xmlns:svg="http://www.w3.org/2000/svg">
  <defs
     id="defs5" />
  <sodipodi:namedview
     id="namedview5"
     pagecolor="#ffffff"
     bordercolor="#000000"
     borderopacity="0.25"
     inkscape:showpageshadow="2"
     inkscape:pageopacity="0.0"
     inkscape:pagecheckerboard="0"
     inkscape:deskcolor="#d1d1d1"
     inkscape:zoom="5.9310345"
     inkscape:cx="23.94186"
     inkscape:cy="21.159884"
     inkscape:window-width="1366"
     inkscape:window-height="705"
     inkscape:window-x="-8"
     inkscape:window-y="-8"
     inkscape:window-maximized="1"
     inkscape:current-layer="svg5" />
  <g
     id="g5"
     style="fill:#bd9e59;fill-opacity:1"
     transform="translate(-5,-4.5)">
    <path
       d="m 29,14.8333 c 1.8935,0 3.4286,-1.5297 3.4286,-3.4166 C 32.4286,9.52969 30.8935,8 29,8 c -1.8935,0 -3.4286,1.52969 -3.4286,3.4167 0,1.8869 1.5351,3.4166 3.4286,3.4166 z"
       fill="white"
       id="path1"
       style="fill:#bd9e59;fill-opacity:1" />
    <path
       d="m 35.8571,16.5417 c -6.8057,0 -11.6228,8.4391 -6.8571,11.9583 0,0 -0.2229,-5.125 3.4286,-5.125 4.44,0 4.5943,8.0121 0.3085,9.6863 C 22.1943,37.1954 13.6229,20.5733 23.0514,8 15.4057,11.4167 10.4857,21.6667 15.8,30.9088 c -4.44,-1.0763 -5.6571,-5.8255 -5.6571,-5.8255 0,0 -1.83433,23.9167 18.8228,23.9167 10.0114,0 18.8914,-7.8412 18.8914,-18.7917 0,-8.1658 -5.5542,-13.6666 -12,-13.6666 z M 18.7143,38.75 C 28.9486,44.3704 42.2343,37.2638 39.2857,25.0833 49.0743,35.06 29.2229,52.6217 18.7143,38.75 Z"
       fill="white"
       id="path2"
       style="fill:#bd9e59;fill-opacity:1" />
    <path
       d="m 29,14.8333 c 1.8935,0 3.4286,-1.5297 3.4286,-3.4166 C 32.4286,9.52969 30.8935,8 29,8 c -1.8935,0 -3.4286,1.52969 -3.4286,3.4167 0,1.8869 1.5351,3.4166 3.4286,3.4166 z"
       fill="white"
       id="path3"
       style="fill:#bd9e59;fill-opacity:1" />
    <path
       d="M 49.5714,49 C 51.465,49 53,47.4703 53,45.5833 c 0,-1.8869 -1.535,-3.4166 -3.4286,-3.4166 -1.8935,0 -3.4285,1.5297 -3.4285,3.4166 0,1.887 1.535,3.4167 3.4285,3.4167 z"
       fill="white"
       id="path4"
       style="fill:#bd9e59;fill-opacity:1" />
    <path
       d="m 8.42857,49 c 1.89353,0 3.42853,-1.5297 3.42853,-3.4167 0,-1.8869 -1.535,-3.4166 -3.42853,-3.4166 C 6.53502,42.1667 5,43.6964 5,45.5833 5,47.4703 6.53502,49 8.42857,49 Z"
       fill="white"
       id="path5"
       style="fill:#bd9e59;fill-opacity:1" />
  </g>
</svg>
